<?xml version="1.0" encoding="UTF-8"?>
<svg id="uuid-d9ce59ba-ec38-41bc-ade3-8f25d915583e" data-name="Layer 1" xmlns="http://www.w3.org/2000/svg" viewBox="0 0 1832.33 369.3">
  <defs>
    <style>
      .uuid-36ab5a58-27ef-496e-8d67-a0bf9ca6925d {
        fill: #00ab69;
        stroke-width: 0px;
      }
    </style>
  </defs>
  <path class="uuid-36ab5a58-27ef-496e-8d67-a0bf9ca6925d" d="m422.37,369.3V19.96h73.86v154.03h4.61l125.72-154.03h88.53l-129.64,156.42,131.17,192.92h-88.36l-95.69-143.63-36.33,44.35v99.28h-73.86Z"/>
  <path class="uuid-36ab5a58-27ef-496e-8d67-a0bf9ca6925d" d="m777.1,73.52c-10.81,0-20.04-3.61-27.72-10.83-7.68-7.22-11.51-15.89-11.51-26.01s3.84-18.62,11.51-25.84c7.68-7.22,16.91-10.83,27.72-10.83s20.04,3.61,27.72,10.83c7.68,7.22,11.51,15.84,11.51,25.84s-3.84,18.79-11.51,26.01c-7.68,7.22-16.92,10.83-27.72,10.83Zm-36.5,295.78V107.29h72.67v262.01h-72.67Z"/>
  <path class="uuid-36ab5a58-27ef-496e-8d67-a0bf9ca6925d" d="m854.34,369.3V107.29h70.45v45.72h2.73c4.78-16.26,14.49-29.46,25.75-37.82,11.26-8.36,28.67-12.54,43.34-12.54,3.64,0,10.85.64,15.06,1.09,4.21.46,11.54,2,14.73,2.79v64.48c-3.41-1.02-15.06-3.26-21.09-4.05-6.03-.79-11.54-1.19-16.55-1.19-10.69,0-24.66,2.3-33.02,6.91-8.36,4.61-16.65,11.9-21.48,20.08-4.83,8.19-7.25,17.63-7.25,28.32v148.23h-72.67Z"/>
  <path class="uuid-36ab5a58-27ef-496e-8d67-a0bf9ca6925d" d="m1166.72,369.3c-24.9,0-46.41-5.66-64.53-16.97-18.12-11.31-32.09-27.12-41.92-47.42-9.84-20.3-14.75-43.87-14.75-70.7s4.91-50.75,14.75-71.04c9.83-20.3,23.81-36.1,41.92-47.42,18.12-11.31,39.62-16.97,64.53-16.97s46.41,5.66,64.53,16.97c18.12,11.32,32.09,27.12,41.92,47.42,9.83,20.3,14.75,43.98,14.75,71.04s-4.92,50.41-14.75,70.7c-9.83,20.3-23.81,36.11-41.92,47.42-18.12,11.32-39.63,16.97-64.53,16.97Zm.32-56.29c11.33,0,20.79-3.44,28.38-10.32,7.59-6.88,13.33-16.29,17.23-28.23,3.9-11.94,5.85-25.53,5.85-40.77s-1.95-28.83-5.85-40.77c-3.9-11.94-9.65-21.38-17.23-28.32-7.59-6.93-17.05-10.4-28.38-10.4s-21.03,3.47-28.78,10.4c-7.75,6.94-13.57,16.38-17.47,28.32-3.9,11.94-5.85,25.53-5.85,40.77s1.95,28.83,5.85,40.77c3.9,11.94,9.72,21.35,17.47,28.23,7.75,6.88,17.34,10.32,28.78,10.32Z"/>
  <path class="uuid-36ab5a58-27ef-496e-8d67-a0bf9ca6925d" d="m1326.11,369.3V19.96h72.67v349.34h-72.67Zm65.84-75.4l.17-87.16h10.58l83.92-99.45h83.41l-112.75,131.69h-17.23l-48.1,54.93Zm97.91,75.4l-77.1-114.12,48.44-51.34,113.77,165.46h-85.12Z"/>
  <path class="uuid-36ab5a58-27ef-496e-8d67-a0bf9ca6925d" d="m1759.66,254.33V103.88h72.67v262.01h-69.77v-47.59h-2.73c-5.91,15.35-15.72,27.69-29.42,37.02-13.7,9.33-30.39,13.99-50.06,13.99-17.51,0-32.92-3.98-46.23-11.94-13.31-7.96-23.68-19.28-31.13-33.94-7.45-14.67-11.23-32.24-11.34-52.71V103.88h72.67v153.86c.11,15.47,4.26,27.69,12.45,36.67,8.19,8.99,19.16,13.48,32.92,13.48,8.76,0,16.94-2.02,24.56-6.06,7.62-4.03,13.79-10.04,18.51-18,4.72-7.96,7.02-17.8,6.91-29.51Z"/>
  <circle class="uuid-36ab5a58-27ef-496e-8d67-a0bf9ca6925d" cx="174.67" cy="194.1" r="174.67"/>
</svg>